<mxfile host="Electron" agent="Mozilla/5.0 (Windows NT 10.0; Win64; x64) AppleWebKit/537.36 (KHTML, like Gecko) draw.io/24.7.8 Chrome/128.0.6613.36 Electron/32.0.1 Safari/537.36" version="24.7.8">
  <diagram name="Page-1" id="4PtoX4y-RdUABlidxuRI">
    <mxGraphModel dx="1104" dy="508" grid="1" gridSize="10" guides="1" tooltips="1" connect="1" arrows="1" fold="1" page="1" pageScale="1" pageWidth="850" pageHeight="1100" math="0" shadow="0">
      <root>
        <mxCell id="0" />
        <mxCell id="1" parent="0" />
        <mxCell id="2RvtawdBpSpCmkJsu9nT-6" value="" style="edgeStyle=orthogonalEdgeStyle;rounded=0;orthogonalLoop=1;jettySize=auto;html=1;" edge="1" parent="1" source="2RvtawdBpSpCmkJsu9nT-2" target="2RvtawdBpSpCmkJsu9nT-5">
          <mxGeometry relative="1" as="geometry">
            <Array as="points">
              <mxPoint x="161" y="237" />
            </Array>
          </mxGeometry>
        </mxCell>
        <mxCell id="2RvtawdBpSpCmkJsu9nT-2" value="Start" style="strokeWidth=2;html=1;shape=mxgraph.flowchart.start_1;whiteSpace=wrap;" vertex="1" parent="1">
          <mxGeometry x="111" y="287" width="100" height="60" as="geometry" />
        </mxCell>
        <mxCell id="2RvtawdBpSpCmkJsu9nT-12" value="" style="edgeStyle=orthogonalEdgeStyle;rounded=0;orthogonalLoop=1;jettySize=auto;html=1;" edge="1" parent="1" source="2RvtawdBpSpCmkJsu9nT-5" target="2RvtawdBpSpCmkJsu9nT-11">
          <mxGeometry relative="1" as="geometry" />
        </mxCell>
        <mxCell id="2RvtawdBpSpCmkJsu9nT-5" value="Input number of&lt;div&gt;hours&lt;/div&gt;" style="shape=parallelogram;perimeter=parallelogramPerimeter;whiteSpace=wrap;html=1;fixedSize=1;strokeWidth=2;" vertex="1" parent="1">
          <mxGeometry x="221" y="207" width="120" height="60" as="geometry" />
        </mxCell>
        <mxCell id="2RvtawdBpSpCmkJsu9nT-14" value="" style="edgeStyle=orthogonalEdgeStyle;rounded=0;orthogonalLoop=1;jettySize=auto;html=1;" edge="1" parent="1" source="2RvtawdBpSpCmkJsu9nT-11" target="2RvtawdBpSpCmkJsu9nT-13">
          <mxGeometry relative="1" as="geometry" />
        </mxCell>
        <mxCell id="2RvtawdBpSpCmkJsu9nT-11" value="Input of wholesalecost" style="shape=parallelogram;perimeter=parallelogramPerimeter;whiteSpace=wrap;html=1;fixedSize=1;strokeWidth=2;" vertex="1" parent="1">
          <mxGeometry x="391" y="207" width="120" height="60" as="geometry" />
        </mxCell>
        <mxCell id="2RvtawdBpSpCmkJsu9nT-16" value="" style="edgeStyle=orthogonalEdgeStyle;rounded=0;orthogonalLoop=1;jettySize=auto;html=1;" edge="1" parent="1" source="2RvtawdBpSpCmkJsu9nT-13" target="2RvtawdBpSpCmkJsu9nT-15">
          <mxGeometry relative="1" as="geometry" />
        </mxCell>
        <mxCell id="2RvtawdBpSpCmkJsu9nT-13" value="Calculate laborcost = numberofhours *laborcostperHour*" style="whiteSpace=wrap;html=1;strokeWidth=2;" vertex="1" parent="1">
          <mxGeometry x="591" y="207" width="120" height="60" as="geometry" />
        </mxCell>
        <mxCell id="2RvtawdBpSpCmkJsu9nT-18" value="" style="edgeStyle=orthogonalEdgeStyle;rounded=0;orthogonalLoop=1;jettySize=auto;html=1;" edge="1" parent="1" source="2RvtawdBpSpCmkJsu9nT-15" target="2RvtawdBpSpCmkJsu9nT-17">
          <mxGeometry relative="1" as="geometry" />
        </mxCell>
        <mxCell id="2RvtawdBpSpCmkJsu9nT-15" value="Calculate totalmaterialcost = wholecost *materialmarkup&quot;" style="whiteSpace=wrap;html=1;strokeWidth=2;" vertex="1" parent="1">
          <mxGeometry x="791" y="207" width="120" height="60" as="geometry" />
        </mxCell>
        <mxCell id="2RvtawdBpSpCmkJsu9nT-20" value="" style="edgeStyle=orthogonalEdgeStyle;rounded=0;orthogonalLoop=1;jettySize=auto;html=1;" edge="1" parent="1" source="2RvtawdBpSpCmkJsu9nT-17" target="2RvtawdBpSpCmkJsu9nT-19">
          <mxGeometry relative="1" as="geometry" />
        </mxCell>
        <mxCell id="2RvtawdBpSpCmkJsu9nT-17" value="Calculate totalcost = laborcost + totalmaterialcost" style="whiteSpace=wrap;html=1;strokeWidth=2;" vertex="1" parent="1">
          <mxGeometry x="981" y="207" width="120" height="60" as="geometry" />
        </mxCell>
        <mxCell id="2RvtawdBpSpCmkJsu9nT-19" value="Output totalcost" style="shape=parallelogram;perimeter=parallelogramPerimeter;whiteSpace=wrap;html=1;fixedSize=1;strokeWidth=2;" vertex="1" parent="1">
          <mxGeometry x="1171" y="207" width="120" height="60" as="geometry" />
        </mxCell>
        <mxCell id="2RvtawdBpSpCmkJsu9nT-21" value="End" style="strokeWidth=2;html=1;shape=mxgraph.flowchart.start_1;whiteSpace=wrap;" vertex="1" parent="1">
          <mxGeometry x="1310" y="287" width="100" height="60" as="geometry" />
        </mxCell>
        <mxCell id="2RvtawdBpSpCmkJsu9nT-22" style="edgeStyle=orthogonalEdgeStyle;rounded=0;orthogonalLoop=1;jettySize=auto;html=1;exitX=1;exitY=0.5;exitDx=0;exitDy=0;entryX=0.5;entryY=0;entryDx=0;entryDy=0;entryPerimeter=0;" edge="1" parent="1" source="2RvtawdBpSpCmkJsu9nT-19" target="2RvtawdBpSpCmkJsu9nT-21">
          <mxGeometry relative="1" as="geometry">
            <Array as="points">
              <mxPoint x="1360" y="237" />
            </Array>
          </mxGeometry>
        </mxCell>
      </root>
    </mxGraphModel>
  </diagram>
</mxfile>
